Coordinates
version=1
nRows=6
nColumns=63
inDegrees=yes

Units are S.I. units (second, meters, Newtons, ...)
If the header above contains a line with 'inDegrees', this indicates whether rotational values are in degrees (yes) or radians (no).

endheader
time	pelvis_tilt	pelvis_list	pelvis_rotation	pelvis_tx	pelvis_ty	pelvis_tz	hip_flexion_r	hip_adduction_r	hip_rotation_r	knee_angle_r	knee_angle_r_beta	ankle_angle_r	subtalar_angle_r	mtp_angle_r	hip_flexion_l	hip_adduction_l	hip_rotation_l	knee_angle_l	knee_angle_l_beta	ankle_angle_l	subtalar_angle_l	mtp_angle_l	L5_S1_Flex_Ext	L5_S1_Lat_Bending	L5_S1_axial_rotation	L4_L5_Flex_Ext	L4_L5_Lat_Bending	L4_L5_axial_rotation	L3_L4_Flex_Ext	L3_L4_Lat_Bending	L3_L4_axial_rotation	L2_L3_Flex_Ext	L2_L3_Lat_Bending	L2_L3_axial_rotation	L1_L2_Flex_Ext	L1_L2_Lat_Bending	L1_L2_axial_rotation	L1_T12_Flex_Ext	L1_T12_Lat_Bending	L1_T12_axial_rotation	Abs_r3	Abs_r2	Abs_r1	Abs_t1	Abs_t2	neck_flexion	neck_bending	neck_rotation	arm_flex_r	arm_add_r	arm_rot_r	elbow_flex_r	pro_sup_r	wrist_flex_r	wrist_dev_r	arm_flex_l	arm_add_l	arm_rot_l	elbow_flex_l	pro_sup_l	wrist_flex_l	wrist_dev_l
      1.74000000	     -2.32861393	     -2.63193019	    459.53062318	      0.14331869	      0.99492399	      0.43015681	     -6.40723701	      1.94744171	      6.71677389	      0.35792446	      0.00624696	     16.59314505	    -13.14672160	      0.00000000	     -3.74916544	     -1.74170401	    -12.99396555	      7.29457017	      0.12731427	     22.87202666	      5.97196410	      0.00000000	      0.05060548	     -1.46617677	     66.58000909	      0.09397943	     -1.95001510	     70.74125966	      0.08313974	     -3.56486219	     70.74125966	      0.05783700	     -3.56486219	     58.25750795	      0.04699225	     -2.98982767	     54.09625739	      0.02891597	     -2.27110781	     49.93500682	      0.36146986	    -16.58568484	    370.29803656	      0.00000000	      0.00000000	      3.67929352	      1.90705059	    -16.25646798	     26.91269207	    -24.06395964	     13.99169965	    149.42700299	     87.42802691	      3.89626599	     -3.62242529	     14.49949870	     -9.65036952	    101.85907666	     20.28586922	     37.75219262	     -0.93091835	    -13.76320301
      1.76000000	     -2.37036489	     -2.60982581	    459.44782113	      0.14331040	      0.99487149	      0.43061894	     -6.43570401	      1.87214091	      6.55368548	      0.36504278	      0.00637120	     16.21082714	    -13.13470046	      0.00000000	     -3.64065499	     -1.69527288	    -13.15475273	      7.53339907	      0.13148262	     23.17041098	      5.87797608	      0.00000000	      0.04852858	     -1.47712797	     66.55419041	      0.09012242	     -1.96458020	     70.71382731	      0.07972760	     -3.59148895	     70.71382731	      0.05546331	     -3.59148895	     58.23491661	      0.04506364	     -3.01215936	     54.07527971	      0.02772923	     -2.28807123	     49.91564281	      0.34663478	    -16.70956703	    370.15444082	      0.00000000	      0.00000000	      3.18401932	      2.01978081	    -15.97335415	     26.70332862	    -24.07792805	     13.66785403	    149.40761069	     87.56559646	      4.07054071	     -3.73354568	     14.53304510	     -9.69810168	    101.77801046	     20.37808602	     37.59583457	     -1.01776372	    -14.06683212
      1.78000000	     -2.35634160	     -2.58962133	    459.56644199	      0.14316049	      0.99481093	      0.43125881	     -6.45977132	      1.88226687	      6.10559906	      0.37785647	      0.00659484	     15.70545909	    -13.08308841	      0.00000000	     -3.38283752	     -1.76309646	    -13.22560501	      8.03201181	      0.14018505	     23.63222204	      5.96119321	      0.00000000	      0.04756828	     -1.50913113	     66.44674585	      0.08833906	     -2.00714441	     70.59966746	      0.07814993	     -3.66930144	     70.59966746	      0.05436579	     -3.66930144	     58.14090262	      0.04417191	     -3.07742021	     53.98798100	      0.02718052	     -2.33764413	     49.83505939	      0.33977548	    -17.07159321	    369.55686638	      0.00000000	      0.00000000	      2.66460520	      2.20722072	    -15.49318762	     26.60787616	    -23.81245968	     13.22063698	    149.35379313	     87.76778288	      4.97584195	     -4.03531668	     14.39516196	     -9.76781881	    101.64022179	     20.40436602	     37.16455271	     -1.50671710	    -14.99993968
      1.80000000	     -2.37493433	     -2.50980841	    459.61793662	      0.14308051	      0.99480700	      0.43152292	     -6.57018956	      1.86927504	      5.56324757	      0.38981818	      0.00680361	     15.27340544	    -12.91806155	      0.00000000	     -3.35061499	     -1.77809463	    -13.23689138	      8.28807830	      0.14465425	     23.80893054	      6.00769215	      0.00000000	      0.04704136	     -1.55635175	     66.34672243	      0.08736051	     -2.06994783	     70.49339258	      0.07728425	     -3.78411365	     70.49339258	      0.05376357	     -3.78411365	     58.05338213	      0.04368261	     -3.17371249	     53.90671198	      0.02687943	     -2.41078886	     49.76004182	      0.33601173	    -17.60576228	    369.00056615	      0.00000000	      0.00000000	      1.81715332	      2.08258247	    -15.31016304	     26.55438379	    -23.47565187	     12.84797035	    149.27379493	     87.58136791	      6.00345002	     -4.40515665	     14.13611411	     -9.74104395	    101.52104427	     20.33569735	     36.69429561	     -2.43945166	    -15.87676995
      1.82000000	     -2.42877018	     -2.42599595	    459.48824842	      0.14339967	      0.99467877	      0.43156571	     -6.68870989	      1.80925156	      5.46374869	      0.38874530	      0.00678489	     15.00476160	    -12.82771739	      0.00000000	     -3.41000727	     -1.74665934	    -13.37111374	      8.47705983	      0.14795260	     23.79178749	      5.87568757	      0.00000000	      0.04815438	     -1.57451851	     66.29125796	      0.08942750	     -2.09410961	     70.43446158	      0.07911283	     -3.82828429	     70.43446158	      0.05503564	     -3.82828429	     58.00485071	      0.04471616	     -3.21075814	     53.86164709	      0.02751541	     -2.43892916	     49.71844347	      0.34396193	    -17.81126823	    368.69208938	      0.00000000	      0.00000000	      0.86377424	      2.10858399	    -15.31054797	     26.47768523	    -23.20761765	     12.54149500	    149.22293510	     87.42292674	      6.10747307	     -4.62769422	     13.86212663	     -9.70140622	    101.36340143	     20.20618594	     36.52301073	     -2.77497526	    -16.16883089
      1.84000000	     -2.46994998	     -2.34417261	    459.35419765	      0.14342585	      0.99450929	      0.43142346	     -6.80645872	      1.75029764	      5.39728396	      0.38453831	      0.00671146	     14.98238524	    -12.61348714	      0.00000000	     -3.49674207	     -1.71131640	    -13.34016204	      8.67015553	      0.15132276	     23.69562535	      5.70217422	      0.00000000	      0.04813762	     -1.61452460	     66.23176162	      0.08939637	     -2.14731771	     70.37124672	      0.07908529	     -3.92555511	     70.37124672	      0.05501648	     -3.92555511	     57.95279142	      0.04470059	     -3.29233856	     53.81330632	      0.02750583	     -2.50089860	     49.67382122	      0.34384219	    -18.26382515	    368.36118860	      0.00000000	      0.00000000	      0.03281278	      2.06136129	    -15.97612344	     26.56486899	    -22.89141029	     11.87806996	    149.07444265	     87.44540934	      6.25579096	     -4.63899674	     13.19148995	     -9.41863498	    100.64994871	     19.69218469	     35.99808424	     -4.15661830	    -17.24811116
